<?xml version="1.0" encoding="UTF-8" standalone="no"?>
<!-- Generator: Adobe Illustrator 16.0.0, SVG Export Plug-In . SVG Version: 6.00 Build 0)  -->

<svg
   xmlns:dc="http://purl.org/dc/elements/1.1/"
   xmlns:cc="http://creativecommons.org/ns#"
   xmlns:rdf="http://www.w3.org/1999/02/22-rdf-syntax-ns#"
   xmlns:svg="http://www.w3.org/2000/svg"
   xmlns="http://www.w3.org/2000/svg"
   xmlns:sodipodi="http://sodipodi.sourceforge.net/DTD/sodipodi-0.dtd"
   xmlns:inkscape="http://www.inkscape.org/namespaces/inkscape"
   version="1.1"
   id="Capa_1"
   x="0px"
   y="0px"
   width="31.47px"
   height="31.47px"
   viewBox="0 0 31.47 31.47"
   style="enable-background:new 0 0 31.47 31.47;"
   xml:space="preserve"
   sodipodi:docname="behance-network-logo.svg"
   inkscape:version="0.92.4 (5da689c313, 2019-01-14)"><metadata
   id="metadata6325"><rdf:RDF><cc:Work
       rdf:about=""><dc:format>image/svg+xml</dc:format><dc:type
         rdf:resource="http://purl.org/dc/dcmitype/StillImage" /></cc:Work></rdf:RDF></metadata><defs
   id="defs6323" /><sodipodi:namedview
   pagecolor="#ffffff"
   bordercolor="#666666"
   borderopacity="1"
   objecttolerance="10"
   gridtolerance="10"
   guidetolerance="10"
   inkscape:pageopacity="0"
   inkscape:pageshadow="2"
   inkscape:window-width="656"
   inkscape:window-height="480"
   id="namedview6321"
   showgrid="false"
   inkscape:zoom="7.4992058"
   inkscape:cx="15.735"
   inkscape:cy="15.735"
   inkscape:window-x="854"
   inkscape:window-y="172"
   inkscape:window-maximized="0"
   inkscape:current-layer="Capa_1" />
<g
   id="g6288">
	<path
   id="Behance"
   d="M28.311,8.465h-8.166V6.436h8.166V8.465L28.311,8.465z M15.829,16.781c0.526,0.817,0.79,1.81,0.79,2.971   c0,1.205-0.297,2.283-0.901,3.236c-0.384,0.631-0.862,1.164-1.435,1.592c-0.646,0.496-1.41,0.838-2.288,1.021   c-0.882,0.183-1.835,0.272-2.862,0.272H0V5.597h9.792c2.468,0.039,4.218,0.754,5.251,2.16c0.62,0.861,0.927,1.894,0.927,3.095   c0,1.241-0.312,2.232-0.937,2.985c-0.348,0.423-0.862,0.808-1.544,1.154C14.522,15.37,15.305,15.963,15.829,16.781z M4.676,13.591   h4.291c0.882,0,1.595-0.169,2.143-0.503c0.549-0.335,0.823-0.93,0.823-1.784c0-0.942-0.362-1.568-1.089-1.869   c-0.625-0.21-1.424-0.318-2.393-0.318H4.676V13.591z M12.346,19.462c0-1.053-0.431-1.78-1.29-2.172   c-0.48-0.221-1.158-0.336-2.027-0.344H4.676v5.403H8.96c0.881,0,1.562-0.114,2.054-0.356   C11.901,21.553,12.346,20.712,12.346,19.462z M31.34,16.164c0.1,0.664,0.145,1.626,0.125,2.884H20.891   c0.059,1.46,0.562,2.48,1.519,3.064c0.575,0.366,1.274,0.545,2.093,0.545c0.863,0,1.566-0.218,2.107-0.666   c0.295-0.238,0.555-0.574,0.779-0.996h3.877c-0.103,0.861-0.568,1.734-1.408,2.625c-1.299,1.41-3.121,2.121-5.461,2.121   c-1.935,0-3.638-0.6-5.117-1.789c-1.475-1.192-2.215-3.131-2.215-5.817c0-2.519,0.666-4.449,2-5.79   c1.338-1.345,3.065-2.014,5.195-2.014c1.262,0,2.4,0.225,3.416,0.678c1.012,0.455,1.848,1.169,2.506,2.151   C30.777,14.025,31.161,15.025,31.34,16.164z M27.523,16.543c-0.069-1.009-0.407-1.773-1.015-2.295   c-0.603-0.525-1.354-0.787-2.25-0.787c-0.978,0-1.729,0.28-2.267,0.832c-0.539,0.553-0.874,1.301-1.012,2.25H27.523z" />
</g>
<g
   id="g6290">
</g>
<g
   id="g6292">
</g>
<g
   id="g6294">
</g>
<g
   id="g6296">
</g>
<g
   id="g6298">
</g>
<g
   id="g6300">
</g>
<g
   id="g6302">
</g>
<g
   id="g6304">
</g>
<g
   id="g6306">
</g>
<g
   id="g6308">
</g>
<g
   id="g6310">
</g>
<g
   id="g6312">
</g>
<g
   id="g6314">
</g>
<g
   id="g6316">
</g>
<g
   id="g6318">
</g>
<path
   style="opacity:1;fill:#ffffff;stroke-width:0.13334745"
   d="M 0.02666949,15.748334 V 5.6806016 l 5.36723501,0.00232 c 5.6597615,0.00244 6.4513125,0.068476 7.7600115,0.6473756 0.898199,0.3973162 1.845968,1.3570582 2.29045,2.3193818 0.342051,0.740557 0.383977,0.9769314 0.383977,2.164805 0,1.864421 -0.477183,2.909108 -1.686824,3.692928 -0.355716,0.230497 -0.646757,0.45693 -0.646757,0.503186 0,0.04626 0.199178,0.156125 0.442617,0.244154 0.624543,0.225838 1.497446,1.010198 1.912589,1.718585 1.586162,2.706583 0.335906,6.7373 -2.506526,8.080817 -1.37912,0.651861 -2.563647,0.761918 -8.2003627,0.761918 H 0.02666949 Z M 10.624786,22.2003 c 0.804761,-0.223419 1.468437,-0.966062 1.670586,-1.869356 0.234259,-1.046782 0.08697,-1.873162 -0.441047,-2.47454 -0.726414,-0.82734 -1.015494,-0.890712 -4.3268612,-0.94853 L 4.560483,16.85607 v 2.746482 2.746481 l 2.7669596,-8e-4 c 1.6071824,-4e-4 2.9892714,-0.06246 3.2973434,-0.147989 z m 0.129423,-8.918894 c 0.91575,-0.462684 1.196727,-0.891969 1.202443,-1.837124 C 11.965865,9.9207699 11.422556,9.3716491 9.6776167,9.140866 9.1000968,9.0644841 7.727485,9.0197585 6.6273685,9.0414758 l -2.0002118,0.039486 -0.036536,2.3119392 -0.036536,2.31194 2.7701588,-0.04503 c 2.6442186,-0.04299 2.8001555,-0.06019 3.4299655,-0.378402 z"
   id="path6884"
   inkscape:connector-curvature="0" /><path
   style="opacity:1;fill:#ffffff;stroke-width:0.13334745"
   d="m 22.629063,25.48464 c -2.454144,-0.542545 -4.465203,-2.227869 -5.070425,-4.249156 -0.920551,-3.074404 -0.33769,-6.742832 1.373944,-8.647373 0.676623,-0.752881 1.899102,-1.521035 2.953452,-1.855824 1.167067,-0.370581 3.453762,-0.401339 4.60441,-0.06193 2.244322,0.662006 3.616398,1.955335 4.442348,4.187392 0.260055,0.702775 0.343998,1.235076 0.398045,2.524096 l 0.06849,1.633506 H 26.098958 20.79859 l 0.09284,0.6334 c 0.197902,1.350267 1.035714,2.458515 2.153587,2.848741 0.818929,0.285872 2.410244,0.225103 3.067647,-0.117145 0.53222,-0.277078 1.250238,-0.990174 1.250238,-1.241668 0,-0.06962 0.844023,-0.123116 1.942524,-0.123116 h 1.942524 l -0.088,0.300032 c -0.408548,1.392883 -1.64211,2.811788 -3.044343,3.501757 -1.65402,0.813861 -3.698679,1.062539 -5.486536,0.667292 z m 4.917532,-9.302926 c -0.127204,-0.722219 -0.684928,-1.759597 -1.118248,-2.079965 -0.888306,-0.656753 -2.237966,-0.865358 -3.383771,-0.522999 -0.734865,0.219572 -1.583713,1.087025 -1.861508,1.902308 -0.417259,1.224588 -0.665553,1.134035 3.109505,1.134035 h 3.330352 z"
   id="path6886"
   inkscape:connector-curvature="0" /><path
   style="opacity:1;fill:#ffffff;stroke-width:0.13334745"
   d="M 20.162135,7.4141185 V 6.4806863 h 4.067098 4.067097 v 0.9334322 0.9334322 h -4.067097 -4.067098 z"
   id="path6888"
   inkscape:connector-curvature="0" /></svg>