<?xml version="1.0" encoding="UTF-8" standalone="no"?>
<!-- Generator: Adobe Illustrator 21.0.0, SVG Export Plug-In . SVG Version: 6.00 Build 0)  -->

<svg
   xmlns:dc="http://purl.org/dc/elements/1.1/"
   xmlns:cc="http://creativecommons.org/ns#"
   xmlns:rdf="http://www.w3.org/1999/02/22-rdf-syntax-ns#"
   xmlns:svg="http://www.w3.org/2000/svg"
   xmlns="http://www.w3.org/2000/svg"
   xmlns:sodipodi="http://sodipodi.sourceforge.net/DTD/sodipodi-0.dtd"
   xmlns:inkscape="http://www.inkscape.org/namespaces/inkscape"
   version="1.1"
   id="Capa_1"
   x="0px"
   y="0px"
   viewBox="0 0 512 512"
   style="enable-background:new 0 0 512 512;"
   xml:space="preserve"
   width="512"
   height="512"
   sodipodi:docname="dribble.svg"
   inkscape:version="0.92.4 (5da689c313, 2019-01-14)"><metadata
   id="metadata9"><rdf:RDF><cc:Work
       rdf:about=""><dc:format>image/svg+xml</dc:format><dc:type
         rdf:resource="http://purl.org/dc/dcmitype/StillImage" /></cc:Work></rdf:RDF></metadata><defs
   id="defs7" /><sodipodi:namedview
   pagecolor="#ffffff"
   bordercolor="#666666"
   borderopacity="1"
   objecttolerance="10"
   gridtolerance="10"
   guidetolerance="10"
   inkscape:pageopacity="0"
   inkscape:pageshadow="2"
   inkscape:window-width="656"
   inkscape:window-height="480"
   id="namedview5"
   showgrid="false"
   inkscape:zoom="0.4609375"
   inkscape:cx="256"
   inkscape:cy="256"
   inkscape:window-x="536"
   inkscape:window-y="42"
   inkscape:window-maximized="0"
   inkscape:current-layer="Capa_1" />
<path
   d="M256,0C115.04,0,0,115.05,0,256c0,140.96,115.05,256,256,256c140.96,0,256-115.05,256-256C512,115.04,396.95,0,256,0z   M429.64,111.51c31.96,38.34,51.47,87.39,52.31,140.89c-40.06-9.37-84.55-10-129.86-1.74c-11.79,2.15-23.58,4.88-35.3,8.16  c-3.9-10.61-8.04-21.13-12.44-31.55c-4.49-10.63-9.23-21.08-14.19-31.38C344.15,175.27,402.65,144.57,429.64,111.51z M256,30  c58.82,0,112.45,22.59,152.7,59.54C393,110.95,348.26,142.12,276.48,169c-25.06-46.66-55.11-89.54-89.83-128.1  C208.51,33.83,231.82,30,256,30z M156.95,52.9c35.41,37.93,65.87,80.29,90.96,126.05c-74.68,24.17-150.29,34.03-212.46,27.66  C50.59,138.96,96.14,82.67,156.95,52.9z M30,256c0-6.64,0.31-13.21,0.87-19.7c13.72,1.45,28.03,2.18,42.82,2.18  c58.33,0,123.86-11.22,188.21-32.53c9.82,20.1,18.65,40.78,26.44,61.97c-25.09,9.02-49.51,20.49-72.44,34.14  c-56.22,33.47-97.35,76.53-114.41,118.71C57.52,379.51,30,320.91,30,256z M256,482c-48.29,0-93.09-15.23-129.86-41.14  c11.4-38.52,49.96-80.19,105.11-113.02c19.43-11.58,42.15-22.49,66.88-31.36c17.53,55.1,28.27,113.26,31.68,173.13  C306.67,477.63,281.84,482,256,482z M359.07,457.1c-4.16-58.32-15.02-115.1-32.45-169.64c48.6-13.36,102.58-17.84,153.77-4.56  C471.33,358.91,424.41,423.47,359.07,457.1z"
   id="path2" />















<path
   style="opacity:1;fill:#ffffff;stroke-width:2.16949153"
   d="M 217.38305,507.83432 C 137.64748,495.39174 67.003251,444.56292 30.441687,373.32925 9.426862,332.38561 1.729797,300.62776 1.7945902,255.1322 1.8691267,202.79496 14.765349,160.01193 44.016549,115.06145 58.068391,93.467911 91.634169,59.806301 114.15174,44.726023 c 101.71863,-68.122148 234.89105,-55.128275 321.32559,31.35232 33.21439,33.232077 55.73341,72.483647 67.50869,117.670347 7.48353,28.71746 9.35051,75.06966 4.21142,104.55893 -23.87508,137.00053 -153.59445,230.78357 -289.81439,209.5267 z m 92.12477,-31.31425 c 9.50252,-2.47413 18.23881,-5.45992 19.41395,-6.63506 4.20337,-4.20337 -6.25011,-84.24722 -16.28789,-124.71891 -7.47314,-30.13115 -13.37424,-48.81356 -15.41849,-48.81356 -3.79767,0 -39.81524,15.5878 -53.79844,23.28305 -37.80348,20.80406 -74.94785,51.13216 -94.53165,77.18437 -11.29788,15.0295 -22.62089,36.18812 -22.62089,42.27024 0,2.70913 5.11303,6.9389 15.72881,13.01177 26.20369,14.99005 51.45119,23.86291 81.49469,28.64006 20.04561,3.1874 66.27745,0.91828 86.01991,-4.22196 z m 65.79484,-27.76075 c 40.33755,-24.58162 74.7179,-65.74344 91.81464,-109.92505 5.85248,-15.12407 15.87872,-55.28683 14.21672,-56.94883 -0.31291,-0.31291 -9.79597,-2.17444 -21.07351,-4.13676 -27.71317,-4.82216 -80.94203,-3.20424 -111.59127,3.39191 -11.91463,2.56419 -21.9354,4.93462 -22.26839,5.26759 -0.33298,0.33299 2.81593,13.089 6.9976,28.34666 8.855,32.30931 17.12313,73.8357 20.52563,103.08923 4.14891,35.67086 4.70157,39.05085 6.38507,39.05085 0.90381,0 7.65089,-3.66102 14.99351,-8.1356 z m -246.6279,-71.36306 c 29.71243,-38.51281 93.94481,-83.27448 151.26042,-105.40889 8.27001,-3.19377 9.21291,-4.22909 7.84622,-8.61546 -2.72314,-8.73993 -22.82227,-54.80984 -24.75943,-56.75195 -1.04138,-1.04403 -7.9301,0.11201 -15.61556,2.62057 -56.39827,18.40853 -132.40505,29.72115 -189.480986,28.20177 l -28.20339,-0.75077 0.280617,23.90849 c 0.678561,57.81298 22.188967,110.47309 62.191104,152.25146 l 8.721825,9.10911 9.35839,-16.42183 c 5.14711,-9.03203 13.42747,-21.69613 18.40079,-28.1425 z M 346.4678,253.07323 c 37.43223,-7.9687 92.55092,-8.37129 128.89144,-0.94143 l 7.39992,1.51291 -1.37967,-19.43688 c -1.6156,-22.76061 -9.43694,-51.7361 -20.05714,-74.30511 -7.53148,-16.00515 -25.36138,-44.52476 -29.39425,-47.01721 -1.17011,-0.72316 -6.37991,2.60492 -11.57731,7.39573 -24.31343,22.41133 -61.92853,45.31791 -104.54615,63.66578 -14.15899,6.09577 -25.99596,11.27206 -26.30439,11.50287 -0.30842,0.23081 3.22106,8.62833 7.84329,18.66116 4.62221,10.03281 10.64921,24.42621 13.3933,31.98531 4.28192,11.79537 5.63052,13.59152 9.51265,12.66957 2.48787,-0.59082 14.2861,-3.15253 26.21831,-5.6927 z M 144.47199,204.13906 c 42.0238,-6.54335 103.28394,-21.85741 103.28394,-25.81935 0,-1.16686 -4.06973,-9.01225 -9.04383,-17.4342 -20.49544,-34.702 -46.64673,-70.610527 -71.04323,-97.549986 L 157.13383,51.70237 146.0328,57.77301 C 97.369567,84.384677 58.675944,130.93783 40.843843,184.32818 c -7.093541,21.23847 -7.078905,22.54093 0.268021,23.85022 11.435334,2.03788 82.054526,-0.72194 103.360126,-4.03934 z m 180.30089,-55.31263 c 16.70509,-8.06552 37.72709,-19.5921 46.71558,-25.61463 19.32793,-12.95024 36.85128,-28.757576 36.70721,-33.112572 C 408.05313,85.793942 387.98349,70.156696 367.94103,58.735013 333.59874,39.164206 295.9941,29.482279 254.5226,29.533585 c -22.87864,0.02831 -61.59626,6.204486 -65.90482,10.513044 -1.30816,1.30816 2.20546,7.11417 9.5798,15.829957 24.57763,29.04844 48.65712,63.379754 67.8038,96.671144 l 10.25002,17.8223 9.07431,-3.4395 c 4.99085,-1.89173 22.74209,-10.03857 39.44717,-18.1041 z"
   id="path6878"
   inkscape:connector-curvature="0" /></svg>