<?xml version="1.0" encoding="UTF-8" standalone="no"?>
<!-- Generator: Adobe Illustrator 16.0.0, SVG Export Plug-In . SVG Version: 6.00 Build 0)  -->

<svg
   xmlns:dc="http://purl.org/dc/elements/1.1/"
   xmlns:cc="http://creativecommons.org/ns#"
   xmlns:rdf="http://www.w3.org/1999/02/22-rdf-syntax-ns#"
   xmlns:svg="http://www.w3.org/2000/svg"
   xmlns="http://www.w3.org/2000/svg"
   xmlns:sodipodi="http://sodipodi.sourceforge.net/DTD/sodipodi-0.dtd"
   xmlns:inkscape="http://www.inkscape.org/namespaces/inkscape"
   version="1.1"
   id="Capa_1"
   x="0px"
   y="0px"
   width="475.084px"
   height="475.084px"
   viewBox="0 0 475.084 475.084"
   style="enable-background:new 0 0 475.084 475.084;"
   xml:space="preserve"
   sodipodi:docname="github-character.svg"
   inkscape:version="0.92.4 (5da689c313, 2019-01-14)"><metadata
   id="metadata4564"><rdf:RDF><cc:Work
       rdf:about=""><dc:format>image/svg+xml</dc:format><dc:type
         rdf:resource="http://purl.org/dc/dcmitype/StillImage" /></cc:Work></rdf:RDF></metadata><defs
   id="defs4562" /><sodipodi:namedview
   pagecolor="#ffffff"
   bordercolor="#666666"
   borderopacity="1"
   objecttolerance="10"
   gridtolerance="10"
   guidetolerance="10"
   inkscape:pageopacity="0"
   inkscape:pageshadow="2"
   inkscape:window-width="1920"
   inkscape:window-height="1017"
   id="namedview4560"
   showgrid="false"
   inkscape:zoom="0.49675424"
   inkscape:cx="237.54201"
   inkscape:cy="237.54201"
   inkscape:window-x="-8"
   inkscape:window-y="-8"
   inkscape:window-maximized="1"
   inkscape:current-layer="g4527" />
<g
   id="g4527">
	<g
   id="g4525">
		<path
   d="M436.244,146.752c5.14-15.422,7.713-31.409,7.713-47.967c0-22.08-4.859-42.828-14.564-62.242    c-20.362,0-38.349,3.715-53.961,11.136c-15.604,7.423-33.4,18.938-53.379,34.545c-25.122-6.09-51.777-9.135-79.941-9.135    c-30.837,0-60.245,3.333-88.223,9.994c-20.364-15.99-38.351-27.74-53.959-35.26c-15.608-7.52-33.689-11.279-54.247-11.279    c-9.707,19.414-14.56,40.163-14.56,62.242c0,16.751,2.568,32.93,7.708,48.535C12.942,177.587,0,215.272,0,260.383    c0,39.595,5.898,71.092,17.701,94.507c6.283,12.367,14.465,23.312,24.554,32.832c10.085,9.514,21.601,17.228,34.545,23.13    c12.946,5.896,25.981,10.801,39.116,14.699c13.134,3.9,27.646,6.758,43.54,8.559c15.893,1.816,29.93,3.004,42.111,3.579    c12.181,0.564,25.693,0.853,40.544,0.853c17.508,0,33.396-0.432,47.678-1.283c14.277-0.855,30.594-2.953,48.964-6.276    c18.367-3.333,34.547-7.857,48.54-13.565c13.99-5.708,27.412-13.895,40.259-24.551c12.847-10.663,22.884-23.318,30.121-37.976    c11.604-23.603,17.412-55.107,17.412-94.507C475.078,215.082,462.135,177.206,436.244,146.752z M401.995,354.455    c-6.092,12.471-13.802,22.265-23.127,29.41c-9.329,7.139-20.938,12.847-34.831,17.135c-13.9,4.281-27.217,7.087-39.971,8.415    c-12.758,1.334-26.933,1.998-42.545,1.998h-47.966c-15.607,0-29.79-0.664-42.541-1.998c-12.752-1.328-26.075-4.134-39.971-8.415    c-13.891-4.288-25.5-9.996-34.829-17.135c-9.329-7.146-17.037-16.939-23.128-29.41c-6.09-12.471-9.136-27.076-9.136-43.824    c0-22.847,6.567-42.264,19.702-58.245c13.134-15.99,30.929-23.982,53.387-23.982c8.188,0,26.746,1.997,55.677,5.995    c13.513,2.093,28.456,3.14,44.823,3.14c16.372,0,31.313-1.044,44.824-3.14c29.317-3.999,47.869-5.995,55.678-5.995    c22.457,0,40.252,7.996,53.386,23.982c13.135,15.988,19.698,35.398,19.698,58.245    C411.125,327.382,408.079,341.995,401.995,354.455z"
   id="path4519" />
		<path
   d="M166.875,265.52c-5.806-6.475-12.703-9.712-20.699-9.712c-7.998,0-14.896,3.241-20.701,9.712    c-5.802,6.468-9.897,13.703-12.275,21.689c-2.383,8.002-3.571,15.804-3.571,23.422c0,7.61,1.191,15.413,3.571,23.414    c2.375,7.991,6.468,15.222,12.275,21.689c5.808,6.475,12.703,9.713,20.701,9.713c7.996,0,14.896-3.244,20.699-9.713    c5.804-6.468,9.897-13.698,12.275-21.689c2.38-8.001,3.571-15.804,3.571-23.414c0-7.611-1.188-15.42-3.571-23.422    C176.771,279.226,172.682,271.994,166.875,265.52z"
   id="path4521" />
		<path
   d="M349.601,265.52c-5.804-6.475-12.703-9.712-20.697-9.712c-7.991,0-14.894,3.241-20.701,9.712    c-5.804,6.468-9.896,13.703-12.271,21.689c-2.385,8.002-3.576,15.804-3.576,23.422c0,7.61,1.191,15.413,3.576,23.414    c2.375,7.991,6.468,15.222,12.271,21.689c5.808,6.475,12.71,9.713,20.701,9.713c7.994,0,14.894-3.244,20.697-9.713    c5.801-6.468,9.896-13.698,12.278-21.689c2.379-8.001,3.569-15.804,3.569-23.414c0-7.611-1.19-15.42-3.569-23.422    C359.498,279.226,355.402,271.994,349.601,265.52z"
   id="path4523" />
	</g>
<path
   style="opacity:1;fill:#ffffff;stroke-width:2.01306796"
   d="M 171.11077,434.57457 C 117.09623,429.12555 71.891106,412.44837 45.441969,388.21255 13.85573,359.26948 1.9150995,324.92163 1.8108524,262.70536 1.7679104,237.07693 2.5098133,229.5928 6.7155229,213.22826 12.241514,191.72648 20.783955,173.19096 32.224935,157.87755 l 7.630811,-10.21362 -2.949966,-10.92359 c -7.302119,-27.03943 -5.042805,-66.365291 5.134576,-89.372947 3.924157,-8.87121 4.280452,-9.119104 13.106728,-9.119104 25.597495,0 48.881086,9.918149 85.973106,36.622095 12.33185,8.878167 13.78372,9.425516 20.13068,7.589204 14.24671,-4.12188 53.40437,-7.975636 80.92365,-7.96421 24.77243,0.01027 37.80018,1.259641 73.87713,7.084785 6.25404,1.009803 8.96385,-0.248483 24.11581,-11.197998 29.06065,-21.000579 56.69806,-32.133876 79.76947,-32.133876 8.82627,0 9.18257,0.247894 13.10672,9.119104 10.14496,22.934348 12.4341,62.590847 5.12837,88.842497 l -2.89238,10.39316 6.98984,9.73752 c 11.44455,15.94339 20.84,36.42517 26.10317,56.90405 4.20107,16.34635 4.94345,23.83905 4.90051,49.46074 -0.0304,18.14829 -1.30137,37.29061 -3.18548,47.97768 -12.90862,73.21981 -60.21269,110.56192 -155.73051,122.93449 -27.24975,3.52972 -112.12329,4.09676 -143.2464,0.95704 z M 298.2502,410.6834 c 54.53888,-5.30689 87.604,-22.95628 103.40404,-55.19468 22.14768,-45.19003 6.58292,-103.17542 -32.56246,-121.30915 -15.31727,-7.09559 -30.9546,-7.70797 -70.1512,-2.74725 -43.92979,5.55976 -78.86735,5.55976 -122.79714,0 -39.19661,-4.96072 -54.83394,-4.34834 -70.15121,2.74725 -39.304105,18.20726 -54.787417,75.90167 -32.555454,121.30915 15.446775,31.54914 49.748894,50.21491 101.348444,55.14954 22.89273,2.18932 101.1354,2.21792 123.46498,0.0451 z"
   id="path6870"
   inkscape:connector-curvature="0" /><path
   style="opacity:1;fill:#ffffff;stroke-width:2.01306796"
   d="m 318.87879,362.40446 c -7.39311,-2.98912 -18.9276,-18.54271 -22.26506,-30.02315 -2.1865,-7.52132 -2.89906,-15.88849 -2.27343,-26.69583 3.18525,-55.02323 51.78094,-66.44198 66.84747,-15.70746 11.94939,40.23795 -13.62799,84.02246 -42.30898,72.42644 z"
   id="path6872"
   inkscape:connector-curvature="0" /><path
   style="opacity:1;fill:#ffffff;stroke-width:2.01306796"
   d="m 132.91038,359.96573 c -19.06093,-12.95201 -26.82696,-42.22782 -18.7952,-70.85281 2.56267,-9.13329 5.68399,-14.47814 12.71487,-21.77255 8.44134,-8.75774 10.17785,-9.66768 18.44959,-9.66768 19.60826,0 33.79664,19.20884 35.46407,48.01279 1.23196,21.28124 -2.90012,35.17123 -14.16178,47.60491 -7.2294,7.98177 -9.96076,9.60036 -17.61491,10.43848 -7.26089,0.79506 -10.44767,0.0482 -16.05664,-3.76314 z"
   id="path6874"
   inkscape:connector-curvature="0" /></g>
<g
   id="g4529">
</g>
<g
   id="g4531">
</g>
<g
   id="g4533">
</g>
<g
   id="g4535">
</g>
<g
   id="g4537">
</g>
<g
   id="g4539">
</g>
<g
   id="g4541">
</g>
<g
   id="g4543">
</g>
<g
   id="g4545">
</g>
<g
   id="g4547">
</g>
<g
   id="g4549">
</g>
<g
   id="g4551">
</g>
<g
   id="g4553">
</g>
<g
   id="g4555">
</g>
<g
   id="g4557">
</g>
</svg>