<?xml version="1.0" encoding="UTF-8" standalone="no"?>
<!-- Generator: Adobe Illustrator 19.0.0, SVG Export Plug-In . SVG Version: 6.00 Build 0)  -->

<svg
   xmlns:dc="http://purl.org/dc/elements/1.1/"
   xmlns:cc="http://creativecommons.org/ns#"
   xmlns:rdf="http://www.w3.org/1999/02/22-rdf-syntax-ns#"
   xmlns:svg="http://www.w3.org/2000/svg"
   xmlns="http://www.w3.org/2000/svg"
   xmlns:sodipodi="http://sodipodi.sourceforge.net/DTD/sodipodi-0.dtd"
   xmlns:inkscape="http://www.inkscape.org/namespaces/inkscape"
   version="1.1"
   id="Capa_1"
   x="0px"
   y="0px"
   viewBox="0 0 512 512"
   style="enable-background:new 0 0 512 512;"
   xml:space="preserve"
   sodipodi:docname="mail.svg"
   inkscape:version="0.92.4 (5da689c313, 2019-01-14)"><metadata
   id="metadata5156"><rdf:RDF><cc:Work
       rdf:about=""><dc:format>image/svg+xml</dc:format><dc:type
         rdf:resource="http://purl.org/dc/dcmitype/StillImage" /></cc:Work></rdf:RDF></metadata><defs
   id="defs5154" /><sodipodi:namedview
   pagecolor="#ffffff"
   bordercolor="#666666"
   borderopacity="1"
   objecttolerance="10"
   gridtolerance="10"
   guidetolerance="10"
   inkscape:pageopacity="0"
   inkscape:pageshadow="2"
   inkscape:window-width="656"
   inkscape:window-height="480"
   id="namedview5152"
   showgrid="false"
   inkscape:zoom="0.4609375"
   inkscape:cx="256"
   inkscape:cy="256"
   inkscape:window-x="1113"
   inkscape:window-y="97"
   inkscape:window-maximized="0"
   inkscape:current-layer="Capa_1" />
<g
   id="g5113">
	<g
   id="g5111">
		<path
   d="M256,60c-57.897,0-105,47.103-105,105c0,35.943,18.126,69.015,48.487,88.467c31.003,19.863,69.06,21.974,104.426,5.703    c7.525-3.462,10.82-12.37,7.357-19.896c-3.462-7.525-12.369-10.82-19.896-7.358c-25.86,11.898-53.454,10.545-75.703-3.709    C193.961,214.298,181,190.669,181,165c0-41.355,33.645-75,75-75s75,33.645,75,75c0,8.271-6.729,15-15,15    c-7.558,0-14.618-5.732-14.998-14.772C301.001,165.152,301,165.076,301,165c0-24.813-20.187-45-45-45s-45,20.187-45,45    s20.187,45,45,45c11.516,0,22.031-4.353,29.999-11.494C293.966,205.648,304.483,210,316,210c24.813,0,45-20.187,45-45    C361,107.103,313.897,60,256,60z M270.789,167.406C269.631,174.535,263.45,180,256,180c-8.271,0-15-6.729-15-15s6.729-15,15-15    c7.691,0,14.04,5.82,14.895,13.285C270.671,164.648,270.634,166.035,270.789,167.406z"
   id="path5109" />
	</g>
</g>
<g
   id="g5119">
	<g
   id="g5117">
		<path
   d="M480.999,196.976c-0.004-3.879-1.566-7.756-4.393-10.583L421,130.787V15c0-8.284-6.716-15-15-15H106    c-8.284,0-15,6.716-15,15v115.787l-55.606,55.606c-0.052,0.052-0.096,0.11-0.147,0.163c-2.811,2.896-4.24,6.709-4.246,10.42    c0,0.01-0.001,0.019-0.001,0.029V467c0,24.845,20.216,45,45,45h360c24.839,0,45-20.207,45-45V197.005    C481,196.995,480.999,196.986,480.999,196.976z M421,173.213L444.787,197L421,220.787V173.213z M121,137.005    c0-0.003,0-0.007,0-0.01V30h270v106.995c0,0.003,0,0.007,0,0.01v113.782L309.787,332H202.213L121,250.787V137.005z M91,173.213    v47.574L67.213,197L91,173.213z M61,460.787V233.213L174.787,347L61,460.787z M82.214,482l119.999-120h107.574l119.999,120H82.214    z M451,460.787L337.213,347L451,233.213V460.787z"
   id="path5115" />
	</g>
</g>
<g
   id="g5121">
</g>
<g
   id="g5123">
</g>
<g
   id="g5125">
</g>
<g
   id="g5127">
</g>
<g
   id="g5129">
</g>
<g
   id="g5131">
</g>
<g
   id="g5133">
</g>
<g
   id="g5135">
</g>
<g
   id="g5137">
</g>
<g
   id="g5139">
</g>
<g
   id="g5141">
</g>
<g
   id="g5143">
</g>
<g
   id="g5145">
</g>
<g
   id="g5147">
</g>
<g
   id="g5149">
</g>
<path
   style="opacity:1;fill:#ffffff;stroke-width:2.16949153"
   d="M 62.665713,508.92613 C 53.199399,506.08473 42.050703,496.55005 37.295228,487.22855 33.111495,479.02774 32.976271,474.259 32.976271,334.91729 V 191.07192 L 62.264407,161.84407 91.552542,132.61622 V 73.324804 c 0,-58.370663 0.796566,-65.9698112 7.375629,-70.3627695 1.312899,-0.8766437 72.283229,-1.6088471 157.711849,-1.6271186 147.74448,-0.031599 155.5,0.1604014 158.91526,3.9342165 3.16025,3.492032 3.59048,11.2147956 3.59048,64.4493846 v 60.481943 l 30.37288,30.63399 30.37289,30.63399 v 141.46088 c 0,154.47847 0.34084,150.04297 -12.58967,163.83239 -3.21805,3.43181 -9.7561,8.04766 -14.52898,10.25744 -8.24298,3.81638 -18.08436,4.01081 -196.33898,3.87894 -103.21356,-0.0764 -190.409244,-0.96373 -193.768187,-1.97196 z m 367.327507,-27.6099 c 0,-0.88693 -26.59673,-28.22252 -59.10385,-60.74576 L 311.78552,361.43729 H 256.43416 201.08281 L 140.3661,422.18305 79.649397,482.92881 H 254.82132 c 96.34453,0 175.1719,-0.72567 175.1719,-1.61258 z M 119.19863,404.29995 176.16299,347.36601 119.22905,290.40165 C 87.915383,259.07126 61.555998,233.43729 60.652639,233.43729 c -0.903358,0 -1.64247,51.25424 -1.64247,113.8983 0,62.64407 0.725422,113.89831 1.61205,113.89831 0.886625,0 27.24601,-25.62026 58.576411,-56.93395 z M 450.53512,233.73058 c -0.65567,-0.65564 -26.77509,24.3909 -58.04319,55.659 l -56.85107,56.85107 57.48127,57.51251 57.48126,57.5125 0.5619,-113.17148 c 0.30904,-62.24434 0.0254,-113.70796 -0.63017,-114.3636 z m -100.29158,58.84677 40.69883,-40.65656 V 140.71294 29.505085 H 255.34915 119.75593 V 140.67065 251.83623 l 40.65656,40.69883 40.65655,40.69884 h 54.23783 54.23783 z M 91.552542,196.08147 v -24.33886 l -13.016795,12.88097 -13.016795,12.88097 11.315567,11.45789 c 6.223562,6.30184 12.081119,11.4579 13.016795,11.4579 0.935676,0 1.701228,-10.95249 1.701228,-24.33887 z m 342.779658,12.40667 11.78399,-11.93221 -11.78399,-11.9322 c -6.48118,-6.56271 -12.54953,-11.9322 -13.48521,-11.9322 -0.93568,0 -1.70123,10.73898 -1.70123,23.8644 0,13.12543 0.76555,23.86441 1.70123,23.86441 0.93568,0 7.00403,-5.36949 13.48521,-11.9322 z"
   id="path6880"
   inkscape:connector-curvature="0" /><path
   style="opacity:1;fill:#ffffff;stroke-width:2.16949153"
   d="M 227.99723,265.00455 C 203.4435,258.23332 176.92139,237.12706 164.84428,214.74753 136.4475,162.12677 157.97984,97.09711 212.3496,71.277026 c 15.1516,-7.195465 19.11082,-8.121189 37.97371,-8.878823 33.7887,-1.357133 55.73152,7.003968 79.11005,30.144131 22.04827,21.823476 34.7483,58.218036 28.86837,82.728326 -6.94549,28.95202 -41.54818,42.57761 -66.54068,26.2019 -4.84614,-3.17531 -5.82088,-3.05663 -14.29782,1.7408 -19.99082,11.31359 -47.2238,3.86234 -58.93777,-16.12603 -10.62837,-18.13594 -5.86885,-44.32487 10.22739,-56.27559 7.74988,-5.75393 19.26137,-10.1948 26.37767,-10.17591 22.19193,0.0589 44.50282,21.51446 44.64556,42.93397 0.0586,8.78458 8.32363,17.79969 16.31884,17.79969 3.15093,0 8.08298,-2.46203 11.22372,-5.60277 5.14691,-5.14691 5.48538,-6.6016 4.15994,-17.879 -0.79355,-6.75192 -3.89686,-17.6544 -6.89623,-24.22773 C 298.3126,76.087997 216.52227,74.478961 188.7284,130.98737 c -6.47488,13.16425 -7.14183,16.34728 -7.14054,34.07843 0.001,16.61816 0.86469,21.39972 5.74473,31.81113 7.0483,15.03736 19.68457,28.00501 34.85772,35.77186 16.66086,8.52838 41.48895,9.67722 62.22466,2.87926 14.34354,-4.70237 15.39457,-4.76857 20.68382,-1.30293 7.43698,4.8729 7.81622,16.9097 0.69104,21.93282 -15.1891,10.70805 -54.73509,15.20523 -77.7926,8.84661 z m 37.9068,-88.1315 c 14.28304,-11.23504 0.12351,-33.2562 -17.12717,-26.6365 -2.0201,0.77519 -4.91678,4.3677 -6.43705,7.98336 -6.82365,16.22868 9.85851,29.43406 23.56422,18.65314 z"
   id="path6882"
   inkscape:connector-curvature="0" /></svg>