<?xml version="1.0" encoding="UTF-8" standalone="no"?>
<!-- Generator: Adobe Illustrator 19.0.0, SVG Export Plug-In . SVG Version: 6.00 Build 0)  -->

<svg
   xmlns:dc="http://purl.org/dc/elements/1.1/"
   xmlns:cc="http://creativecommons.org/ns#"
   xmlns:rdf="http://www.w3.org/1999/02/22-rdf-syntax-ns#"
   xmlns:svg="http://www.w3.org/2000/svg"
   xmlns="http://www.w3.org/2000/svg"
   xmlns:sodipodi="http://sodipodi.sourceforge.net/DTD/sodipodi-0.dtd"
   xmlns:inkscape="http://www.inkscape.org/namespaces/inkscape"
   version="1.1"
   id="Capa_1"
   x="0px"
   y="0px"
   viewBox="0 0 512 512"
   style="enable-background:new 0 0 512 512;"
   xml:space="preserve"
   sodipodi:docname="twitter.svg"
   inkscape:version="0.92.4 (5da689c313, 2019-01-14)"><metadata
   id="metadata5742"><rdf:RDF><cc:Work
       rdf:about=""><dc:format>image/svg+xml</dc:format><dc:type
         rdf:resource="http://purl.org/dc/dcmitype/StillImage" /></cc:Work></rdf:RDF></metadata><defs
   id="defs5740" /><sodipodi:namedview
   pagecolor="#ffffff"
   bordercolor="#666666"
   borderopacity="1"
   objecttolerance="10"
   gridtolerance="10"
   guidetolerance="10"
   inkscape:pageopacity="0"
   inkscape:pageshadow="2"
   inkscape:window-width="1920"
   inkscape:window-height="1017"
   id="namedview5738"
   showgrid="false"
   inkscape:zoom="0.4609375"
   inkscape:cx="256"
   inkscape:cy="256"
   inkscape:window-x="-8"
   inkscape:window-y="-8"
   inkscape:window-maximized="1"
   inkscape:current-layer="Capa_1" />
<g
   id="g5705">
	<g
   id="g5703">
		<path
   d="M512,97.248c-19.04,8.352-39.328,13.888-60.48,16.576c21.76-12.992,38.368-33.408,46.176-58.016    c-20.288,12.096-42.688,20.64-66.56,25.408C411.872,60.704,384.416,48,354.464,48c-58.112,0-104.896,47.168-104.896,104.992    c0,8.32,0.704,16.32,2.432,23.936c-87.264-4.256-164.48-46.08-216.352-109.792c-9.056,15.712-14.368,33.696-14.368,53.056    c0,36.352,18.72,68.576,46.624,87.232c-16.864-0.32-33.408-5.216-47.424-12.928c0,0.32,0,0.736,0,1.152    c0,51.008,36.384,93.376,84.096,103.136c-8.544,2.336-17.856,3.456-27.52,3.456c-6.72,0-13.504-0.384-19.872-1.792    c13.6,41.568,52.192,72.128,98.08,73.12c-35.712,27.936-81.056,44.768-130.144,44.768c-8.608,0-16.864-0.384-25.12-1.44    C46.496,446.88,101.6,464,161.024,464c193.152,0,298.752-160,298.752-298.688c0-4.64-0.16-9.12-0.384-13.568    C480.224,136.96,497.728,118.496,512,97.248z"
   id="path5701" />
	</g>
</g>
<g
   id="g5707">
</g>
<g
   id="g5709">
</g>
<g
   id="g5711">
</g>
<g
   id="g5713">
</g>
<g
   id="g5715">
</g>
<g
   id="g5717">
</g>
<g
   id="g5719">
</g>
<g
   id="g5721">
</g>
<g
   id="g5723">
</g>
<g
   id="g5725">
</g>
<g
   id="g5727">
</g>
<g
   id="g5729">
</g>
<g
   id="g5731">
</g>
<g
   id="g5733">
</g>
<g
   id="g5735">
</g>
<path
   style="opacity:1;fill:#ffffff;stroke-width:2.16949153"
   d="m 110.64407,458.75202 c -8.94915,-1.62818 -25.002498,-5.49614 -35.674097,-8.59546 -20.531154,-5.9628 -60.314018,-24.36877 -61.441888,-28.42674 -0.447313,-1.60939 7.436882,-2.80526 23.81688,-3.6125 28.540738,-1.40655 52.349401,-7.08743 75.468595,-18.00717 14.10243,-6.66091 43.38983,-24.14634 43.38983,-25.90497 0,-0.33397 -6.48289,-1.73616 -14.40642,-3.116 -34.69664,-6.04214 -67.1977,-31.02909 -79.888047,-61.41824 l -2.934385,-7.02687 18.783917,-0.049 c 10.331156,-0.0271 20.73646,-0.84198 23.122905,-1.8109 3.60242,-1.46261 2.08514,-2.6163 -8.938079,-6.7963 -34.248416,-12.98701 -58.006116,-38.82951 -67.096884,-72.98483 -2.708536,-10.17636 -4.191906,-23.58138 -2.609109,-23.57819 0.298305,6.1e-4 5.547924,1.90362 11.665818,4.22892 11.194724,4.25492 33.351131,8.21824 33.351131,5.96582 0,-0.66584 -5.870661,-6.81028 -13.045912,-13.65431 C 30.108742,170.97814 18.46328,137.20941 23.700068,105.49946 26.35908,89.39853 33.079717,71.59322 36.498022,71.59322 c 1.116579,0 5.64623,4.412959 10.065892,9.806573 16.461158,20.088677 56.622666,50.406437 87.002766,65.678037 29.08724,14.6217 88.63324,30.80398 113.42856,30.82546 l 5.75052,0.005 -0.7138,-20.07278 c -1.1998,-33.73953 9.2204,-59.723331 32.4959,-81.031831 22.17717,-20.302987 43.64926,-27.851228 75.36271,-26.492812 24.5041,1.04961 41.51142,7.523087 60.65326,23.086393 l 11.59469,9.427079 18.76075,-5.849303 c 10.31842,-3.217115 24.46581,-8.729207 31.43866,-12.249092 12.62447,-6.372805 12.67159,-6.37868 11.17501,-1.393367 -3.00952,10.025194 -14.87987,25.988929 -28.94896,38.931773 -14.30871,13.16327 -14.34923,13.23329 -6.80127,11.75083 10.55098,-2.07228 39.59314,-9.39133 44.04745,-11.10061 8.64926,-3.319033 2.28679,5.40228 -19.86211,27.22585 l -23.54345,23.19766 -1.20387,29.09368 c -3.26272,78.84956 -42.95142,159.62133 -103.84419,211.33662 -41.11588,34.91908 -87.49757,56.2135 -141.83112,65.11649 -24.27074,3.97694 -78.686,3.90528 -100.88135,-0.13277 z"
   id="path6876"
   inkscape:connector-curvature="0" /></svg>